<svg xmlns="http://www.w3.org/2000/svg" viewBox="0 0 72.53 76.7"><defs><style>.cls-1{fill:#0071bc;}.cls-1,.cls-2{fill-rule:evenodd;}.cls-2{fill:#fff;}</style></defs><g id="レイヤー_2" data-name="レイヤー 2"><g id="コンテンツ"><path class="cls-1" d="M66.11,61h1.57v3.88a.79.79,0,1,1-1.57,0V61ZM64.54,39.12h4.8V58.61a.86.86,0,0,1-.81.8H65.3a.82.82,0,0,1-.76-.8V39.12ZM65.3,14h3.23a.83.83,0,0,1,.77.75v2.34h2.42a.86.86,0,0,1,.81.8V33.56H70.92V18.7H69.3V37.49H64.54V14.77A.79.79,0,0,1,65.3,14Z"/><path class="cls-1" d="M54.43,9.35V75.11a1.63,1.63,0,0,1-1.61,1.59H1.57A1.59,1.59,0,0,1,0,75.11V9.35A1.57,1.57,0,0,1,1.57,7.81h9.7V6.22a1.54,1.54,0,0,1,1.62-1.55C21.78,4.15,20.34,0,27.26,0s5.35,4.15,14.37,4.67a1.63,1.63,0,0,1,1.62,1.55V7.81h9.57a1.61,1.61,0,0,1,1.61,1.54Z"/><path class="cls-2" d="M26.72,60.2a1.06,1.06,0,0,0-1.08,1.06v1.06a1.06,1.06,0,0,0,1.08,1.06H42a1.16,1.16,0,0,0,1.16-1.06V61.26A1.16,1.16,0,0,0,42,60.2Zm-7.59-2.07-4,6.92L11.77,62l1.34-1.33,2,1.81,4-4.32Zm-7.59-1.06a1.06,1.06,0,0,0-1.08,1.06v7.32a1,1,0,0,0,1.08,1h7.32a1.13,1.13,0,0,0,1.17-1V58.13a1.17,1.17,0,0,0-1.17-1.06Zm15.18-9.39a1,1,0,0,0-1.08,1v1.06a1.06,1.06,0,0,0,1.08,1.06H42a1.16,1.16,0,0,0,1.16-1.06V48.73a1.15,1.15,0,0,0-1.16-1ZM19.13,45.6l-4,6.93-3.37-3.09,1.34-1.37,2,1.9,4-4.37Zm-7.59-1.06a1.06,1.06,0,0,0-1.08,1.06v7.32A1.06,1.06,0,0,0,11.54,54h7.32A1.17,1.17,0,0,0,20,52.92V45.6a1.17,1.17,0,0,0-1.17-1.06Zm15.18-9.39a1.06,1.06,0,0,0-1.08,1.06v1a1.06,1.06,0,0,0,1.08,1.06H42a1.16,1.16,0,0,0,1.16-1.06v-1A1.16,1.16,0,0,0,42,35.15Zm-7.59-2.07-4,6.92-3.37-3.17,1.34-1.28,2,1.81,4-4.28Zm-7.59-1a1,1,0,0,0-1.08,1V40.4a1.06,1.06,0,0,0,1.08,1.06h7.32A1.17,1.17,0,0,0,20,40.4V33.08a1.14,1.14,0,0,0-1.17-1Zm15.18-9.43a1,1,0,0,0-1.08,1.05v1a1.06,1.06,0,0,0,1.08,1.06H42A1.16,1.16,0,0,0,43.2,24.7v-1A1.15,1.15,0,0,0,42,22.63Zm-7.59-2.08-4,7-3.37-3.17L13.11,23l2,1.81,4-4.28Zm-7.59-1a1,1,0,0,0-1.08,1v7.32a1.06,1.06,0,0,0,1.08,1.06h7.32A1.17,1.17,0,0,0,20,27.87V20.55a1.17,1.17,0,0,0-1.17-1ZM5.7,12.48h5.57V14a1.55,1.55,0,0,0,1.62,1.59h28.7A1.62,1.62,0,0,0,43.2,14V12.48h5.57a.82.82,0,0,1,.81.75v58a.86.86,0,0,1-.81.79H5.7a.73.73,0,0,1-.76-.79v-58a.69.69,0,0,1,.76-.75Z"/></g></g></svg>