<svg xmlns="http://www.w3.org/2000/svg" viewBox="0 0 10.8 16.99"><g id="レイヤー_2" data-name="レイヤー 2"><g id="レイヤー_1-2" data-name="レイヤー 1" fill-rule="evenodd"><path d="M10.38 7.34h-.55V5.12C9.83 2.3 7.84 0 5.41 0S1 2.3 1 5.12v2.22H.42a.46.46 0 00-.42.5v8.67a.45.45 0 00.42.49h10a.46.46 0 00.42-.48V7.84a.47.47 0 00-.42-.5zm-7.9-2.22a3.24 3.24 0 012.93-3.45 3.23 3.23 0 012.91 3.45v2.22H2.48V5.12z" fill="#999"/><path d="M6.88 11.2a1.37 1.37 0 00-1.29-1.44A1.35 1.35 0 004.3 11.2a1.43 1.43 0 00.87 1.37v1.54a.46.46 0 00.43.48.47.47 0 00.4-.48v-1.57a1.43 1.43 0 00.84-1.34z" fill="#fff"/></g></g></svg>