<svg xmlns="http://www.w3.org/2000/svg" viewBox="0 0 39.89 39.89"><defs><style>.cls-1{fill:#999;fill-rule:evenodd}</style></defs><g id="レイヤー_2" data-name="レイヤー 2"><g id="スペーサー"><path class="cls-1" d="M0 20A20 20 0 0120 0a20.08 20.08 0 0110 2.67A20.4 20.4 0 0137.23 10a20.13 20.13 0 012.66 10 20.07 20.07 0 01-2.66 10 20.43 20.43 0 01-7.3 7.3 20.07 20.07 0 01-10 2.66 19.94 19.94 0 01-10-2.66A20.25 20.25 0 012.61 30 20.08 20.08 0 010 20z"/><path d="M18.42 32.9V36h3v-3.1zM20 19.13a.82.82 0 100 1.63.82.82 0 000-1.63zm13-.76v3h3v-3zm-29 0v3h2.94v-3zM18.42 3.81v3.05h3V3.81zM20 2.37A17.58 17.58 0 112.39 20 17.57 17.57 0 0120 2.37z" fill="#fff" fill-rule="evenodd"/><path class="cls-1" d="M19.89 21.28a1.27 1.27 0 01-1.09-.6 1.33 1.33 0 01.38-1.79l9.72-6.15a1.3 1.3 0 011.8.43 1.28 1.28 0 01-.44 1.8l-9.66 6.09a1.07 1.07 0 01-.71.22z"/><path class="cls-1" d="M19.89 21.28a1.16 1.16 0 01-.71-.22l-6.93-4.51a1.3 1.3 0 01-.39-1.8 1.33 1.33 0 011.8-.38l6.94 4.52a1.3 1.3 0 01.4 1.79 1.26 1.26 0 01-1.09.6z"/></g></g></svg>