<svg xmlns="http://www.w3.org/2000/svg" viewBox="0 0 18 18"><g id="レイヤー_2" data-name="レイヤー 2"><g id="ヘッダ_" data-name="ヘッダ－"><circle cx="9" cy="9" r="9" fill="#c4c4c4"/><path d="M4.56 13.36A6.08 6.08 0 019 11.79h.11a6.11 6.11 0 014.3 1.54 2 2 0 01.69.75l.9 1.64a9 9 0 10-12 0c.28-.51.58-1.05.89-1.63a2.38 2.38 0 01.67-.73zM9 2.07c2 0 3.66 1.95 3.66 4.35S11 10.8 9 10.8s-3.63-2-3.63-4.38S7 2.07 9 2.07z" fill="none"/><path d="M9 10.8c2 0 3.66-2 3.66-4.38S11 2.07 9 2.07 5.38 4 5.38 6.42 7 10.8 9 10.8zm6 4.92l-.9-1.64a2 2 0 00-.69-.75 6.11 6.11 0 00-4.3-1.54H9a6.08 6.08 0 00-4.41 1.57 2.38 2.38 0 00-.65.72c-.31.58-.61 1.12-.89 1.63a9 9 0 0012 0z" fill="#fff"/></g></g></svg>