<svg xmlns="http://www.w3.org/2000/svg" viewBox="0 0 53.35 50.21"><g id="レイヤー_2" data-name="レイヤー 2"><g id="コンテンツ"><path d="M.67 32.44H5a.74.74 0 01.7.75v10.73a.67.67 0 00.66.69H47a.68.68 0 00.67-.69V33.19a.73.73 0 01.69-.75h4.3a.73.73 0 01.7.75v16.34a.71.71 0 01-.7.68H.67a.69.69 0 01-.67-.68V33.19a.71.71 0 01.67-.75zM24.54 0h5.12a1.13 1.13 0 011.15 1.1v21.53h6.61c.63 0 .9.42.57 1l-4.57 7.84c-.34.51-.82 1.37-1.12 1.88l-4.61 7.84c-.33.54-.82.54-1.12 0L22 33.31c-.3-.51-.78-1.37-1.12-1.88l-4.6-7.84c-.3-.54 0-1 .54-1h6.64V1.1A1.13 1.13 0 0124.54 0z" fill="#fff" fill-rule="evenodd"/></g></g></svg>