<svg xmlns="http://www.w3.org/2000/svg" viewBox="0 0 43.54 69.62"><g id="レイヤー_2" data-name="レイヤー 2"><g id="コンテンツ"><path d="M16.19 20.76V64a5.5 5.5 0 01-5.25 5.64A5.47 5.47 0 015.73 64V20.76A11.92 11.92 0 010 10.42 11.84 11.84 0 015.86 0v9.77l5.08 3.17L16 9.77V0a11.88 11.88 0 015.9 10.42 12 12 0 01-5.74 10.34zM10.9 61.37a2.18 2.18 0 102 2.17 2.07 2.07 0 00-2-2.17zm29.24-25.89V15.29l1.42-4.08a1.39 1.39 0 000-.57L40.22.91a1 1 0 00-1-.91h-2.31a1.06 1.06 0 00-1 .91l-1.38 9.69a1.16 1.16 0 000 .52L36 15.37v20.11a4.09 4.09 0 00-3.16 4.09v25.88a4 4 0 003.84 4.17h2.91a4 4 0 003.88-4.17V39.57a4 4 0 00-3.4-4.09z" fill="#fff" fill-rule="evenodd"/></g></g></svg>