<svg xmlns="http://www.w3.org/2000/svg" viewBox="0 0 58 54.54"><g id="レイヤー_2" data-name="レイヤー 2"><g id="コンテンツ"><path d="M57.22 5.92c.52 0 .78.35.78.89v6.36c-16.5 11.7-28.68 29.94-28.68 29.94a1 1 0 01-1 .62 1.36 1.36 0 01-.78-.27l-18-14a1.53 1.53 0 01-.21-2l3.46-5a2.08 2.08 0 011.34-.58 2 2 0 01.65.18l11.27 6A130 130 0 0156.83 6a.75.75 0 01.39-.09zM2.64 0h47.74A2.69 2.69 0 0153 2.71v2.23c-1 .49-2.43 1.24-4 2.18V4.05H3.94v46.4H49V24.11c1.35-1.2 2.65-2.4 4-3.6v31.27a2.67 2.67 0 01-2.64 2.76H2.64A2.7 2.7 0 010 51.78V2.71A2.72 2.72 0 012.64 0z" fill="#fff" fill-rule="evenodd"/></g></g></svg>