<svg xmlns="http://www.w3.org/2000/svg" viewBox="0 0 40.4 55.9"><g id="レイヤー_2" data-name="レイヤー 2"><g id="コンテンツ"><path d="M6.78 43.78a1 1 0 00-1 1 1 1 0 001 1h11.74a1 1 0 001-1 1 1 0 00-1-1H6.78zM26.07 42h13.27L26.07 55V42zM6.78 35.26a1 1 0 00-1 1 1 1 0 001 1H33.4a1 1 0 001-1 1 1 0 00-1-1H6.78zm0-8.59a1 1 0 000 2H33.4a1 1 0 000-2H6.78zm0-8.56a1 1 0 000 2H33.4a1 1 0 000-2H6.78zm0-8.55a1 1 0 000 2H33.4a1 1 0 000-2H6.78zM1.28 0h37.77a1.35 1.35 0 011.35 1.33v38.38c0 .11-.08.18-.08.33H25.16a1 1 0 00-1 1v14.78c-.11 0-.18.08-.29.08H1.28A1.35 1.35 0 010 54.52V1.33A1.31 1.31 0 011.28 0z" fill="#fff" fill-rule="evenodd"/></g></g></svg>