<svg xmlns="http://www.w3.org/2000/svg" viewBox="0 0 55.39 71.35"><g id="レイヤー_2" data-name="レイヤー 2"><g id="コンテンツ"><path d="M41.25 52a5.6 5.6 0 00-2.53 10.68 5.6 5.6 0 002.53.57A5.67 5.67 0 0047 57.62a5.53 5.53 0 00-3.07-4.95 5.8 5.8 0 00-2.68-.67zm-30-2.43a4.07 4.07 0 00-1.85 7.78 4 4 0 001.9.46 4.19 4.19 0 004.19-4.11 4.12 4.12 0 00-3.07-3.91 3.53 3.53 0 00-1.16-.19zm26.07-5.89a1.58 1.58 0 011.39.76l1.32 2.31a10.27 10.27 0 012.64 0L44 44.5a1.65 1.65 0 012-.64l1.05.45a8.23 8.23 0 001 .42 1.55 1.55 0 01.93 1.75l-.82 2.62A10.3 10.3 0 0150 50.93l2.6-.69a1.57 1.57 0 011.83.88l.85 2a1.57 1.57 0 01-.7 1.9l-2.33 1.29a14.44 14.44 0 010 2.63l2.29 1.25a1.59 1.59 0 01.66 1.9l-.85 2a1.65 1.65 0 01-1.85.91l-2.5-.73a12.24 12.24 0 01-2 1.93l.69 2.47a1.46 1.46 0 01-.89 1.75l-2.09.84a1.62 1.62 0 01-1.9-.69l-1.17-2.16a7.83 7.83 0 01-2.91 0l-1.24 2a1.53 1.53 0 01-1.9.64l-.59-.13-.31-.15-.39-.15-.81-.34a1.55 1.55 0 01-.86-1.83l.66-2.28a9.41 9.41 0 01-2-2l-2.4.65a1.55 1.55 0 01-1.82-.88l-.86-2.05a1.52 1.52 0 01.7-1.86l2.21-1.22a10.36 10.36 0 01.08-2.73l-2.25-1.26a1.51 1.51 0 01-.66-1.86l.89-2a1.56 1.56 0 011.82-.91l2.52.72a11.23 11.23 0 012-1.82l-.73-2.55a1.53 1.53 0 01.89-1.74l2.09-.84a1.35 1.35 0 01.55-.11zm-29.52-1a1.53 1.53 0 011.36.76l1 1.63a6.63 6.63 0 012.14 0l.89-1.6a1.61 1.61 0 011.94-.61l.31.12a3.45 3.45 0 01.5.19l.35.15a1.6 1.6 0 01.9 1.82l-.51 1.71a6.92 6.92 0 011.63 1.52l1.69-.52a1.6 1.6 0 011.82.83l.47 1.18a1.48 1.48 0 01-.62 1.86l-1.55.8a12 12 0 010 2.24 12.42 12.42 0 001.47.84 1.47 1.47 0 01.7 1.86l-.47 1.14a1.62 1.62 0 01-1.86.88l-1.63-.46a6.89 6.89 0 01-1.63 1.56 16.5 16.5 0 01.47 1.63 1.53 1.53 0 01-.94 1.79l-1.17.49a1.65 1.65 0 01-1.94-.68l-.85-1.52a5.3 5.3 0 01-2.21.08 12.34 12.34 0 00-.86 1.44 1.58 1.58 0 01-1.94.65 3.6 3.6 0 01-.46-.19 7.17 7.17 0 01-.7-.27 1.56 1.56 0 01-.89-1.83l.46-1.71A9.4 9.4 0 014.2 59l-1.78.49a1.67 1.67 0 01-1.87-.87l-.46-1.14a1.57 1.57 0 01.66-1.87l1.7-.91a6.41 6.41 0 010-2l-1.7-1a1.53 1.53 0 01-.66-1.83l.5-1.17a1.63 1.63 0 011.83-.84l1.86.49a10.56 10.56 0 011.47-1.44l-.5-1.79a1.56 1.56 0 01.89-1.82l1.16-.49a2.26 2.26 0 01.51-.08zm18.67-29.34a9 9 0 00-9.08 8.89 8.55 8.55 0 002.17 5.63 9.05 9.05 0 006.91 3.19 8.92 8.92 0 009-8.82 8.71 8.71 0 00-3.14-6.65 9 9 0 00-5.89-2.24zM23.87 0h5a1.5 1.5 0 011.48 1.29l.62 4.68a24 24 0 013.88 1.55l3.72-2.92a1.67 1.67 0 012.06.15 13.91 13.91 0 001.12 1.14L44 8.13a1.46 1.46 0 01.16 2l-2.88 3.61A17.78 17.78 0 0143 17.63l4.62.54a1.52 1.52 0 011.32 1.48v4.83a1.45 1.45 0 01-1.32 1.44l-4.5.53a14.2 14.2 0 01-1.71 4.07L44.16 34a1.58 1.58 0 01-.08 2l-3.49 3.42a1.67 1.67 0 01-2.06.08L35 36.76a15.93 15.93 0 01-4.15 1.71l-.54 4.37a1.5 1.5 0 01-1.48 1.29h-5a1.5 1.5 0 01-1.48-1.29l-.54-4.45a15.85 15.85 0 01-4-1.67l-3.65 2.78a1.67 1.67 0 01-2.06-.08l-2.29-2.24A13.61 13.61 0 008.62 36a1.58 1.58 0 01-.08-2l2.91-3.61a15.57 15.57 0 01-1.59-3.84l-4.73-.61a1.45 1.45 0 01-1.32-1.44v-4.85a1.55 1.55 0 011.32-1.48L10 17.6a14.46 14.46 0 011.59-3.73l-3-3.72a1.6 1.6 0 01.08-2l3.49-3.38a1.67 1.67 0 012.06-.15L18 7.6a16.56 16.56 0 013.76-1.52l.62-4.79A1.5 1.5 0 0123.87 0z" fill="#fff" fill-rule="evenodd"/></g></g></svg>