<svg xmlns="http://www.w3.org/2000/svg" viewBox="0 0 82.91 76.7"><defs><style>.cls-1{fill:#0071bc;fill-rule:evenodd;}</style></defs><g id="レイヤー_2" data-name="レイヤー 2"><g id="コンテンツ"><path class="cls-1" d="M81.18,73H69.73V15.53a1.19,1.19,0,0,0-1.15-1.23H62.25a1.19,1.19,0,0,0-1.15,1.23V73H56.68V30.17a1.19,1.19,0,0,0-1.15-1.23H49.2A1.2,1.2,0,0,0,48,30.17V73H43.63V22.85a1.19,1.19,0,0,0-1.15-1.23H36.15A1.2,1.2,0,0,0,35,22.85V73H30.58V37.42a1.17,1.17,0,0,0-1.15-1.16H23a1.17,1.17,0,0,0-1.09,1.16V73H17.47V52.07a1.19,1.19,0,0,0-1.09-1.24H10a1.18,1.18,0,0,0-1.09,1.24V73H3.39V1.78A1.72,1.72,0,0,0,1.66,0,1.71,1.71,0,0,0,0,1.78V74.85A1.78,1.78,0,0,0,1.66,76.7H81.18a1.85,1.85,0,0,0,0-3.7Z"/></g></g></svg>