<svg xmlns="http://www.w3.org/2000/svg" viewBox="0 0 17.15 12.1"><g id="レイヤー_2" data-name="レイヤー 2"><g id="レイヤー_1-2" data-name="レイヤー 1" fill-rule="evenodd"><path d="M15.77 12.1H1.35A1.36 1.36 0 010 10.74V1.35A1.35 1.35 0 011.35 0h14.42a1.36 1.36 0 011.38 1.35v9.39a1.37 1.37 0 01-1.38 1.36z" fill="#999"/><path d="M10.43 6.49l5.49 4.69H1.39l5.38-4.62 1.58 1.37a.34.34 0 00.2.08.3.3 0 00.21-.08l1.67-1.44zm5.76-5v9.06L10.9 6.07l5.29-4.55zM.94 1.43l5.38 4.69-5.38 4.63V1.43zM1.3.91H16L8.57 7.28 1.3.91z" fill="#fff"/></g></g></svg>