<svg xmlns="http://www.w3.org/2000/svg" viewBox="0 0 48.26 63.87"><g id="レイヤー_2" data-name="レイヤー 2"><g id="コンテンツ"><path d="M43.52 23.41a4.65 4.65 0 00-3.42 1.5 4.72 4.72 0 00-4.66-4.26A4.81 4.81 0 0032 22.18a4.65 4.65 0 00-4.62-4 4.78 4.78 0 00-3.93 2.07V5a5 5 0 00-10.08 0v34.43L8.94 34a5 5 0 00-7.09-.73 5 5 0 00-.73 7.05l15.94 19.57V62A1.93 1.93 0 0019 63.87h23A1.93 1.93 0 0043.91 62v-2.5c1.39-4.71 4.12-14.33 4.2-14.56a4.8 4.8 0 00.15-1.11V28.09a4.72 4.72 0 00-4.74-4.68z" fill="#fff" fill-rule="evenodd"/></g></g></svg>