<svg xmlns="http://www.w3.org/2000/svg" viewBox="0 0 16.34 16.51"><g id="レイヤー_2" data-name="レイヤー 2"><g id="design" fill-rule="evenodd"><path d="M.7 1.39h1.13v1.16a1 1 0 001 1.05h.4a1 1 0 001-1.05V1.39h1v1.16a1 1 0 001 1.05h.4a1 1 0 001-1.05V1.39h1v1.16a1 1 0 001 1.05h.4a1 1 0 001-1.05V1.39h1v1.16a1 1 0 001 1.05h.4a1 1 0 001-1.05V1.39h1.13a.73.73 0 01.71.74v13.64a.73.73 0 01-.71.74H.7a.72.72 0 01-.7-.74V2.13a.72.72 0 01.7-.74zM13.11 0h.41a.4.4 0 01.39.42v2.13a.41.41 0 01-.39.43h-.41a.42.42 0 01-.4-.43V.42a.41.41 0 01.4-.42zM9.68 0h.4a.4.4 0 01.39.42v2.13a.41.41 0 01-.39.43h-.4a.42.42 0 01-.4-.43V.42a.41.41 0 01.4-.42zM6.25 0h.4a.41.41 0 01.41.42v2.13a.42.42 0 01-.41.45h-.4a.44.44 0 01-.42-.43V.42A.43.43 0 016.25 0zM2.82 0h.4a.41.41 0 01.4.42v2.13a.42.42 0 01-.4.43h-.4a.44.44 0 01-.42-.43V.42A.43.43 0 012.82 0z" fill="#999"/><path d="M13 13h.83v.89H13V13zm-.19-.61a.43.43 0 00-.41.42v1.27a.44.44 0 00.41.43H14a.41.41 0 00.4-.43v-1.3a.41.41 0 00-.4-.42zm-2.62 0a.41.41 0 00-.4.42v1.27a.41.41 0 00.4.43h1.2a.44.44 0 00.42-.43v-1.3a.43.43 0 00-.42-.42zm-2.64 0a.4.4 0 00-.39.42v1.27a.41.41 0 00.39.43h1.22a.44.44 0 00.4-.43v-1.3a.43.43 0 00-.4-.42zm-2.62 0a.42.42 0 00-.41.42v1.27a.43.43 0 00.41.43h1.21a.42.42 0 00.4-.43v-1.3a.41.41 0 00-.4-.42zm-2.62 0a.42.42 0 00-.41.42v1.27a.43.43 0 00.41.43h1.2a.41.41 0 00.39-.43v-1.3a.4.4 0 00-.39-.42zM13 10.2h.83v.88H13v-.88zm-.19-.63a.44.44 0 00-.41.43v1.27a.44.44 0 00.41.43H14a.41.41 0 00.4-.43V10a.41.41 0 00-.4-.43zm-2.62 0a.41.41 0 00-.4.43v1.27a.41.41 0 00.4.43h1.2a.44.44 0 00.42-.43V10a.44.44 0 00-.42-.43zm-2.64 0a.41.41 0 00-.39.43v1.27a.41.41 0 00.39.43h1.22a.44.44 0 00.4-.43V10a.44.44 0 00-.4-.43zm-2.62 0a.43.43 0 00-.41.43v1.27a.43.43 0 00.41.43h1.21a.42.42 0 00.4-.43V10a.42.42 0 00-.4-.43zm-2.62 0a.43.43 0 00-.41.43v1.27a.43.43 0 00.41.43h1.2a.41.41 0 00.39-.43V10a.41.41 0 00-.39-.43zM13 7.43h.83v.88H13v-.88zm-.2-.63a.43.43 0 00-.41.42V8.5a.43.43 0 00.41.42H14a.41.41 0 00.4-.42V7.22a.41.41 0 00-.4-.42zm-2.62 0a.41.41 0 00-.4.42V8.5a.41.41 0 00.4.42h1.2a.43.43 0 00.42-.42V7.22a.43.43 0 00-.42-.42zm-2.64 0a.4.4 0 00-.39.42V8.5a.4.4 0 00.39.42h1.23a.43.43 0 00.4-.42V7.22a.43.43 0 00-.4-.42zm-2.62 0a.42.42 0 00-.41.42V8.5a.42.42 0 00.41.42h1.22a.41.41 0 00.4-.42V7.22a.41.41 0 00-.4-.42zm-2.62 0a.42.42 0 00-.41.42V8.5a.42.42 0 00.41.42h1.21a.4.4 0 00.39-.42V7.22a.4.4 0 00-.39-.42zM.59 5.42h15.15v10.32a.13.13 0 01-.11.12H.69a.11.11 0 01-.1-.12V5.42z" fill="#fff"/></g></g></svg>