<svg xmlns="http://www.w3.org/2000/svg" viewBox="0 0 75.87 76.7"><defs><style>.cls-1{fill:#0071bc;}.cls-1,.cls-2{fill-rule:evenodd;}.cls-2{fill:#fff;}</style></defs><g id="レイヤー_2" data-name="レイヤー 2"><g id="コンテンツ"><path class="cls-1" d="M3.24,6.46H8.48v5.37a4.74,4.74,0,0,0,4.62,4.89H15a4.74,4.74,0,0,0,4.62-4.89V6.46H24.4v5.37A4.74,4.74,0,0,0,29,16.72h1.85a4.74,4.74,0,0,0,4.63-4.89V6.46h4.83v5.37A4.74,4.74,0,0,0,45,16.72H46.8a4.74,4.74,0,0,0,4.62-4.89V6.46h4.83v5.37a4.74,4.74,0,0,0,4.62,4.89h1.85a4.74,4.74,0,0,0,4.63-4.89V6.46h5.24a3.36,3.36,0,0,1,3.28,3.42V73.22a3.41,3.41,0,0,1-3.28,3.48H3.24A3.37,3.37,0,0,1,0,73.22V9.88A3.32,3.32,0,0,1,3.24,6.46ZM60.87,0h1.91a1.89,1.89,0,0,1,1.84,2v9.88a1.94,1.94,0,0,1-1.84,2H60.87a1.94,1.94,0,0,1-1.84-2V2A1.89,1.89,0,0,1,60.87,0ZM45,0H46.8a1.89,1.89,0,0,1,1.85,2v9.88a1.94,1.94,0,0,1-1.85,2H45a1.94,1.94,0,0,1-1.85-2V2A1.89,1.89,0,0,1,45,0ZM29,0h1.85a1.9,1.9,0,0,1,1.9,2v9.88a2,2,0,0,1-1.9,2H29a2,2,0,0,1-1.95-2V2A2,2,0,0,1,29,0ZM13.1,0H15A1.89,1.89,0,0,1,16.8,2v9.88a1.94,1.94,0,0,1-1.85,2H13.1a2,2,0,0,1-1.95-2V2A2,2,0,0,1,13.1,0Z"/><path class="cls-2" d="M60.31,60.19h3.85v4.13H60.31V60.19Zm-.87-2.82a2,2,0,0,0-1.9,2v5.91a2,2,0,0,0,1.9,2h5.65a2,2,0,0,0,1.85-2V59.33a1.9,1.9,0,0,0-1.85-2Zm-12.18,0a1.9,1.9,0,0,0-1.85,2v5.91a1.94,1.94,0,0,0,1.85,2h5.6a2,2,0,0,0,2-2V59.33a2,2,0,0,0-2-2ZM35,57.37a1.9,1.9,0,0,0-1.84,2v5.91a1.94,1.94,0,0,0,1.84,2h5.71a2,2,0,0,0,1.85-2V59.33a2,2,0,0,0-1.85-2Zm-12.17,0a1.94,1.94,0,0,0-1.9,2v5.91a2,2,0,0,0,1.9,2h5.65a1.94,1.94,0,0,0,1.85-2V59.33a1.9,1.9,0,0,0-1.85-2Zm-12.17,0a2,2,0,0,0-1.91,2v5.91a2,2,0,0,0,1.91,2h5.59a1.94,1.94,0,0,0,1.85-2V59.33a1.9,1.9,0,0,0-1.85-2Zm49.62-10h3.85v4.07H60.31V47.39Zm-.87-2.94a2,2,0,0,0-1.9,2v5.92a2,2,0,0,0,1.9,2h5.65a2,2,0,0,0,1.85-2V46.46a2,2,0,0,0-1.85-2Zm-12.18,0a2,2,0,0,0-1.85,2v5.92a2,2,0,0,0,1.85,2h5.6a2,2,0,0,0,2-2V46.46a2,2,0,0,0-2-2ZM35,44.45a2,2,0,0,0-1.84,2v5.92a2,2,0,0,0,1.84,2h5.71a2,2,0,0,0,1.85-2V46.46a2,2,0,0,0-1.85-2Zm-12.17,0a2,2,0,0,0-1.9,2v5.92a2,2,0,0,0,1.9,2h5.65a2,2,0,0,0,1.85-2V46.46a2,2,0,0,0-1.85-2Zm-12.17,0a2,2,0,0,0-1.91,2v5.92a2,2,0,0,0,1.91,2h5.59a2,2,0,0,0,1.85-2V46.46a2,2,0,0,0-1.85-2Zm49.62-9.93h3.85v4.07H60.31V34.52Zm-.87-2.93a2,2,0,0,0-1.9,1.95v6a2,2,0,0,0,1.9,2h5.65a1.9,1.9,0,0,0,1.85-2v-6a1.9,1.9,0,0,0-1.85-1.95Zm-12.18,0a1.89,1.89,0,0,0-1.85,1.95v6a1.9,1.9,0,0,0,1.85,2h5.6a2,2,0,0,0,2-2v-6a2,2,0,0,0-2-1.95ZM35,31.59a1.89,1.89,0,0,0-1.84,1.95v6a1.9,1.9,0,0,0,1.84,2h5.71a2,2,0,0,0,1.85-2v-6a2,2,0,0,0-1.85-1.95Zm-12.17,0A1.94,1.94,0,0,0,21,33.54v6a1.94,1.94,0,0,0,1.9,2h5.65a1.9,1.9,0,0,0,1.85-2v-6a1.89,1.89,0,0,0-1.85-1.95Zm-12.17,0a1.94,1.94,0,0,0-1.91,1.95v6a2,2,0,0,0,1.91,2h5.59a1.9,1.9,0,0,0,1.85-2v-6a1.89,1.89,0,0,0-1.85-1.95Zm-8-6.4H73.1V48.91h0V61.66h0V73.17a.57.57,0,0,1-.51.54H3.18a.53.53,0,0,1-.46-.54V49.94h0V25.19Z"/></g></g></svg>